<svg xmlns="http://www.w3.org/2000/svg" viewBox="0 0 109.55 109.46"><defs><style>.cls-1{fill:#84cec3;}.cls-2{fill:#f3fafb;}.cls-3{fill:#ffc544;}.cls-4{fill:#febc12;}.cls-5{fill:#f99c1c;}</style></defs><g id="Layer_2" data-name="Layer 2"><g id="Layer_1-2" data-name="Layer 1"><path class="cls-1" d="M108.82,66.64c-3-1.89-6-3.78-9-5.61A1.7,1.7,0,0,1,99,59.25a21.77,21.77,0,0,0,.16-2.62,39.76,39.76,0,0,0-.21-6.56,1.59,1.59,0,0,1,.89-1.78c2.94-1.83,5.92-3.72,8.86-5.56l.47-.31c-1-2.62-2.15-5.19-3.2-7.81-8.12,3.35-16.19,6.71-24.26,10v.05l-.21.11-2.57,1v0a22.33,22.33,0,0,1,1,3.56,26.17,26.17,0,0,1,.57,5.35,23.85,23.85,0,0,1-.63,5.5A25.62,25.62,0,0,1,60.23,79.85a26.39,26.39,0,0,1-10.91,0A25.62,25.62,0,0,1,29.67,60.24a23.85,23.85,0,0,1-.63-5.5,25.49,25.49,0,0,1,.58-5.35,21.29,21.29,0,0,1,1.1-3.77L29,44.94l-.32-.16h-.05l-.11-.05-.85-.35,0,0h0c-8.17-3.25-16.17-6.67-24.25-10,0,.05-.06.11-.06.16-.57,1.2-1,2.46-1.62,3.67C1.52,38.59,0,42,0,42.21c.21.16.42.32.58.42,3,1.94,6,3.93,9.07,5.87a1.55,1.55,0,0,1,.78,1.68,55.77,55.77,0,0,0-.21,5.92c0,1.15.16,2.25.21,3.36a1.38,1.38,0,0,1-.68,1.41l-.37.21c-2.93,1.84-5.87,3.67-8.86,5.5A3.6,3.6,0,0,0,.05,67c2.47,5.87,4.88,11.8,7.29,17.67a.91.91,0,0,1,.37-.06c3.61-.84,7.28-1.67,11-2.51a1.41,1.41,0,0,1,1.57.52,40.37,40.37,0,0,0,6.5,6.5,1.66,1.66,0,0,1,.63,1.78c-.84,3.52-1.62,7-2.41,10.54-.05.16-.05.31-.1.52,5.92,2.52,11.79,5,17.66,7.5a8,8,0,0,1,.47-.68c1.84-3,3.67-6,5.51-9a1.61,1.61,0,0,1,1.67-.89c1.31.11,2.68.21,4,.21a37.56,37.56,0,0,0,5.4-.26,1.29,1.29,0,0,1,1.41.57c.11.16.21.37.32.53,1.83,3,3.61,6.08,5.45,9.12l.31.47c5.87-2.41,11.74-4.87,17.62-7.28-.06-.21-.06-.42-.11-.58C83.81,98,83,94.47,82.19,91a1.57,1.57,0,0,1,.52-1.73,41.85,41.85,0,0,0,6.45-6.45,1.59,1.59,0,0,1,1.78-.63l10.8,2.52a1.51,1.51,0,0,0,.47,0c2.47-5.87,4.88-11.74,7.34-17.61A5.47,5.47,0,0,1,108.82,66.64Z"/><path class="cls-2" d="M61.22,72c3.54-4.64,7.42-10.82,7.42-15.59a15.89,15.89,0,0,0-.28-3,.48.48,0,0,0,0-.12,63.35,63.35,0,0,0-3-10.21.56.56,0,0,0-.17-.25C63.54,39.16,60,37.09,55,37.09s-8.43,2-10.08,5.57l0,.05A44.21,44.21,0,0,0,41.73,53a.66.66,0,0,0,0,.14,15.75,15.75,0,0,0-.33,3.22c0,4.38,3.37,10,6.6,14.46l6.1-6.71c-2.68-3.18-8.2-10.29-8.74-15.45,2.09-2.44,5.39-3.78,9.66-3.78s7.58,1.34,9.66,3.78c-.59,5.58-9.33,16.18-9.33,16.18l-6.5,7.28S35.78,86.92,31.34,91.79a.71.71,0,0,0-.05.93,27.4,27.4,0,0,0,5.91,5.19c.28.19.64.51,1.12,0L54.91,79.35C55.53,78.64,58.82,74.93,61.22,72Z"/><path class="cls-2" d="M78.77,92,62,73.17a93.68,93.68,0,0,1-6.17,7.12L71.6,98a.64.64,0,0,0,1,.12,43.65,43.65,0,0,0,6.19-5.2A.66.66,0,0,0,78.77,92Z"/><path class="cls-3" d="M56.3,0C68.56.23,80.9,5.16,91,13.65a39.22,39.22,0,0,1,6.56,6.7,34.1,34.1,0,0,1,3.06,4.32c.33.64.54,1.21.82,1.87a5.23,5.23,0,0,1,.33,2A1.38,1.38,0,0,1,100.37,30c-2.5.08-3.87-2.6-5.09-4.36a41.59,41.59,0,0,0-5.58-6.42,50.73,50.73,0,0,0-70.31.31,49,49,0,0,0-6.94,8.7A4.35,4.35,0,0,1,9.89,30a1.88,1.88,0,0,1-1.26,0c-.93-.42-1-1.72-.76-2.71a13.51,13.51,0,0,1,2.21-4.32A52.05,52.05,0,0,1,26.63,7.94,54,54,0,0,1,44.07,1,64.69,64.69,0,0,1,56.3,0Z"/><path class="cls-4" d="M55.8,11.61a42.24,42.24,0,0,1,20.64,6A39.46,39.46,0,0,1,89.13,29.23a8.69,8.69,0,0,1,1,2.43,3.39,3.39,0,0,1,.08.44,1.66,1.66,0,0,1-2,1.77,7,7,0,0,1-1.64-.72,16.89,16.89,0,0,1-2.9-2.77c-1.44-1.39-2.83-2.81-4.27-4.2-5-4.81-10.86-7.28-17.83-8.92a37.2,37.2,0,0,0-23.4,3.9A29.83,29.83,0,0,0,31.49,26c-2,1.89-3.9,3.85-5.86,5.77A20.33,20.33,0,0,1,24,33.22a3.3,3.3,0,0,1-1.59.65,1.6,1.6,0,0,1-2-1.85,7.49,7.49,0,0,1,1.42-3.39,33.33,33.33,0,0,1,3.74-4.4,43.88,43.88,0,0,1,20-11.41A41.3,41.3,0,0,1,55.8,11.61Z"/><path class="cls-5" d="M55.71,22.81a28.25,28.25,0,0,1,14.62,4.57c3.44,2.18,7.6,6.24,8.63,9a7.65,7.65,0,0,1,.21,1.27c.19,1.11-1.47,2.1-2.59,1.76a2.09,2.09,0,0,1-1.08-.54c-3.08-3.81-4.26-5.16-6.08-6.57a22.42,22.42,0,0,0-13-4.76c-5.64-.32-13,1.87-17.6,6.91-.76.84-2.23,2.74-3,3.52a17.71,17.71,0,0,1-1.39,1.21,2,2,0,0,1-3-1.53,4.83,4.83,0,0,1,.44-1.87,10.93,10.93,0,0,1,1.93-2.88,29.7,29.7,0,0,1,15.9-9.47A29.17,29.17,0,0,1,55.71,22.81Z"/></g></g></svg>