<svg xmlns="http://www.w3.org/2000/svg" viewBox="0 0 115.67 131.29"><defs><style>.cls-1{fill:#84cec3;}.cls-2{fill:#ededed;}.cls-3{fill:#ffc545;}.cls-4{fill:#f3fafb;}.cls-5{fill:#ffc544;}.cls-6{fill:#febc12;}.cls-7{fill:#f99c1c;}</style></defs><g id="Layer_2" data-name="Layer 2"><g id="Layer_1-2" data-name="Layer 1"><path class="cls-1" d="M112.66,66.64c-3-1.89-6-3.78-9-5.61a1.7,1.7,0,0,1-.84-1.78,21.77,21.77,0,0,0,.16-2.62,38.7,38.7,0,0,0-.21-6.56,1.59,1.59,0,0,1,.89-1.78c2.94-1.83,5.93-3.72,8.86-5.56.16-.1.32-.2.47-.31-1-2.62-2.15-5.19-3.19-7.81-8.13,3.35-16.2,6.71-24.27,10v.05l-.21.11-2.57,1v0a22.33,22.33,0,0,1,1,3.56,26.17,26.17,0,0,1,.57,5.35,23.85,23.85,0,0,1-.63,5.5A25.62,25.62,0,0,1,64.07,79.85a26.34,26.34,0,0,1-10.9,0A25.63,25.63,0,0,1,33.51,60.24a23.85,23.85,0,0,1-.63-5.5,25.49,25.49,0,0,1,.58-5.35,22.16,22.16,0,0,1,1.1-3.77l-1.73-.68-.32-.16h0l-.1-.05-.85-.35,0,0h0c-8.18-3.25-16.18-6.67-24.26-10,0,.05-.06.11-.06.16-.57,1.2-1,2.46-1.62,3.67-.16.36-1.68,3.72-1.68,4,.21.16.42.32.58.42,3,1.94,6,3.93,9.07,5.87a1.55,1.55,0,0,1,.78,1.68,55.77,55.77,0,0,0-.21,5.92c0,1.15.16,2.25.21,3.36a1.38,1.38,0,0,1-.68,1.41l-.37.21c-2.93,1.84-5.87,3.67-8.85,5.5a3.09,3.09,0,0,0-.48.37c2.47,5.87,4.88,11.8,7.29,17.67a.91.91,0,0,1,.37-.06c3.61-.84,7.28-1.67,11-2.51a1.41,1.41,0,0,1,1.57.52,40.37,40.37,0,0,0,6.5,6.5,1.66,1.66,0,0,1,.63,1.78c-.84,3.52-1.62,7-2.41,10.54-.05.16-.05.31-.1.52,5.92,2.52,11.79,5,17.66,7.5.16-.26.32-.47.47-.68,1.84-3,3.67-6,5.51-9A1.62,1.62,0,0,1,54,98.82c1.31.11,2.68.21,4,.21a37.56,37.56,0,0,0,5.4-.26,1.3,1.3,0,0,1,1.42.57c.1.16.2.37.31.53,1.83,3,3.62,6.08,5.45,9.12l.31.47c5.88-2.41,11.75-4.87,17.62-7.28-.06-.21-.06-.42-.11-.58C87.66,98,86.82,94.47,86,91a1.57,1.57,0,0,1,.52-1.73A41.41,41.41,0,0,0,93,82.78a1.59,1.59,0,0,1,1.78-.63l10.8,2.52a1.54,1.54,0,0,0,.47,0c2.47-5.87,4.88-11.74,7.34-17.61A5.47,5.47,0,0,1,112.66,66.64Z" transform="translate(-0.48)"/><path class="cls-2" d="M2.82,120.1H6.09a4.31,4.31,0,0,1,4.64,4.67c0,3.64-2.32,6.38-6.24,6.38h-4Zm-.52,9.77H4.48c2.9,0,4.6-2,4.61-5.08,0-2.16-1.14-3.41-3.2-3.41H4.1Z" transform="translate(-0.48)"/><path class="cls-2" d="M23.4,126H18.28l-.8,3.86h5.85l-.48,1.3H15.67L18,120.1h6.92l-.27,1.3H19.27l-.7,3.28h5.12Z" transform="translate(-0.48)"/><path class="cls-2" d="M33.17,121.4h-3.4l.29-1.3H38.4l-.29,1.3h-3.4l-2.05,9.75H31.11Z" transform="translate(-0.48)"/><path class="cls-2" d="M49.32,126H44.2l-.81,3.86h5.85l-.47,1.3H41.58l2.34-11.05h6.93l-.28,1.3H45.18l-.7,3.28H49.6Z" transform="translate(-0.48)"/><path class="cls-2" d="M64,127.85a4.76,4.76,0,0,1-4.87,3.44c-2.78,0-4-1.89-4-4.44,0-3.18,1.77-6.91,5.7-6.91,2.39,0,3.83,1.33,3.93,3.54H63.05a2.24,2.24,0,0,0-2.49-2.26c-2.56,0-3.88,2.9-3.88,5.6,0,1.74.71,3.19,2.59,3.19a3.16,3.16,0,0,0,3-2.16Z" transform="translate(-0.48)"/><path class="cls-3" d="M73.47,120.32h-3.8l.47-2.18H80.39l-.47,2.18H76.13l-2.29,10.83H71.18Z" transform="translate(-0.48)"/><path class="cls-3" d="M95.45,126.27c.47-2.22,1-4.83,1.4-6.3h-.07c-1.14,2.64-3.26,7.11-5.26,11.18H89.21c-.18-3.2-.49-8.74-.48-11.21h-.09c-.21,1.51-.75,4.31-1.22,6.55l-1,4.66H84l2.76-13h4c.21,3.17.42,7.61.42,9.54h0c.69-1.76,2.87-6,4.58-9.54h4l-2.76,13H94.42Z" transform="translate(-0.48)"/><path class="cls-3" d="M114.32,125.46h-5.85l-.74,3.51h6.66l-.77,2.18h-9l2.76-13h8.74l-.47,2.18h-6.12l-.62,3h5.85Z" transform="translate(-0.48)"/><path class="cls-4" d="M65.06,72c3.54-4.64,7.42-10.82,7.42-15.59a16.79,16.79,0,0,0-.27-3v-.12a65.17,65.17,0,0,0-3-10.21.56.56,0,0,0-.17-.25c-1.62-3.63-5.15-5.7-10.13-5.7s-8.44,2-10.08,5.57a.12.12,0,0,0,0,.05A44.21,44.21,0,0,0,45.57,53a.33.33,0,0,0,0,.14,15.07,15.07,0,0,0-.34,3.22c0,4.38,3.37,10,6.61,14.46L58,64.11c-2.69-3.18-8.21-10.29-8.75-15.45,2.09-2.44,5.39-3.78,9.67-3.78s7.57,1.34,9.66,3.78c-.6,5.58-9.34,16.18-9.34,16.18l-6.5,7.28S39.62,86.92,35.18,91.79a.72.72,0,0,0,0,.93,27.45,27.45,0,0,0,5.92,5.19c.27.19.63.51,1.11,0L58.75,79.35C59.38,78.64,62.66,74.93,65.06,72Z" transform="translate(-0.48)"/><path class="cls-4" d="M82.61,92,65.83,73.17a91.48,91.48,0,0,1-6.17,7.12L75.44,98a.64.64,0,0,0,1,.12,44.29,44.29,0,0,0,6.2-5.2A.67.67,0,0,0,82.61,92Z" transform="translate(-0.48)"/><path class="cls-5" d="M60.14,0C72.4.23,84.74,5.16,94.88,13.65a39.54,39.54,0,0,1,6.55,6.7,34.1,34.1,0,0,1,3.06,4.32c.33.64.55,1.21.82,1.87a5.23,5.23,0,0,1,.33,2A1.38,1.38,0,0,1,104.22,30c-2.5.08-3.88-2.6-5.1-4.36a41.59,41.59,0,0,0-5.58-6.42,50.74,50.74,0,0,0-70.31.31,49.48,49.48,0,0,0-6.94,8.7A4.35,4.35,0,0,1,13.74,30a1.9,1.9,0,0,1-1.27,0c-.93-.42-1-1.72-.76-2.71a13.51,13.51,0,0,1,2.21-4.32A52.16,52.16,0,0,1,30.47,7.94,54,54,0,0,1,47.92,1,64.5,64.5,0,0,1,60.14,0Z" transform="translate(-0.48)"/><path class="cls-6" d="M59.64,11.61a42.24,42.24,0,0,1,20.64,6A39.35,39.35,0,0,1,93,29.23a8.69,8.69,0,0,1,1,2.43,3.39,3.39,0,0,1,.08.44,1.66,1.66,0,0,1-2,1.77,7,7,0,0,1-1.64-.72,16.89,16.89,0,0,1-2.9-2.77c-1.43-1.39-2.83-2.81-4.27-4.2-4.95-4.81-10.86-7.28-17.83-8.92A37.2,37.2,0,0,0,42,21.16,29.83,29.83,0,0,0,35.33,26c-2,1.89-3.9,3.85-5.86,5.77-.51.5-1.06,1-1.62,1.43a3.38,3.38,0,0,1-1.6.65,1.59,1.59,0,0,1-2-1.85,7.36,7.36,0,0,1,1.41-3.39,33.33,33.33,0,0,1,3.74-4.4,43.88,43.88,0,0,1,20-11.41A41.36,41.36,0,0,1,59.64,11.61Z" transform="translate(-0.48)"/><path class="cls-7" d="M59.56,22.81a28.24,28.24,0,0,1,14.61,4.57c3.44,2.18,7.6,6.24,8.63,9A6,6,0,0,1,83,37.69c.19,1.11-1.46,2.1-2.59,1.76a2.09,2.09,0,0,1-1.08-.54c-3.08-3.81-4.26-5.16-6.08-6.57a22.42,22.42,0,0,0-13-4.76c-5.64-.32-13,1.87-17.59,6.91-.76.84-2.24,2.74-3,3.52a17.71,17.71,0,0,1-1.39,1.21,2,2,0,0,1-3-1.53,4.83,4.83,0,0,1,.44-1.87,11.18,11.18,0,0,1,1.93-2.88,29.73,29.73,0,0,1,15.9-9.47A29.27,29.27,0,0,1,59.56,22.81Z" transform="translate(-0.48)"/></g></g></svg>