<?xml version="1.0" encoding="utf-8"?>
<!-- Generator: Adobe Illustrator 25.2.0, SVG Export Plug-In . SVG Version: 6.00 Build 0)  -->
<svg version="1.1" id="Layer_1" xmlns="http://www.w3.org/2000/svg" xmlns:xlink="http://www.w3.org/1999/xlink" x="0px" y="0px"
	 viewBox="0 0 1080 1080" style="enable-background:new 0 0 1080 1080;" xml:space="preserve">
<style type="text/css">
	.st0{fill:#FFFFFF;}
	.st1{fill-rule:evenodd;clip-rule:evenodd;fill:#1B986C;}
	.st2{fill-rule:evenodd;clip-rule:evenodd;fill:#1F6838;}
	.st3{fill-rule:evenodd;clip-rule:evenodd;fill:#97C798;}
	.st4{fill-rule:evenodd;clip-rule:evenodd;fill:#0D6637;}
	.st5{fill-rule:evenodd;clip-rule:evenodd;fill:#231F20;}
	.st6{fill:#231F20;}
</style>
<g>
	<g>
		<path class="st0" d="M1005,1030.7c0,5.5-4.5,10-10,10H85c-5.5,0-10-4.5-10-10V49.3c0-5.5,4.5-10,10-10H995c5.5,0,10,4.5,10,10
			V1030.7z"/>
	</g>
	<g>
		<g>
			<path class="st1" d="M464.1,577.3c8.6,11.2,18.4,21.1,29.1,29.6c-1.7,1.5-3.1,3.3-4.3,5.3l-22.6,39.6c-5.5,9.7-2.3,22.2,7.2,27.8
				l10.9,6.4c9.5,5.6,21.7,2.3,27.2-7.4l22.6-39.7c1.3-2.2,2-4.5,2.4-6.9c10,4,20.5,7,31,9c-1.1,2.5-1.7,5.3-1.7,8.2l-0.1,45.8
				c-0.1,11.2,8.8,20.3,19.8,20.4h12.6c11.1,0,20.1-9.1,20.1-20.4l0.1-45.8c0-2.3-0.2-4.4-1-6.4c13-1.5,25.9-4.4,38.4-9
				c0.4,2.2,1.2,4.4,2.3,6.4l22.4,39.7c5.6,9.8,17.8,13.1,27.4,7.5l11-6.4c9.6-5.6,12.8-18.1,7.3-27.9l-22.5-39.7
				c-0.8-1.5-1.9-2.8-2.9-4c11.5-8.7,21.7-18.6,30.5-29.4c1.6,2.4,3.9,4.6,6.6,6.2l39,22.9c9.6,5.6,21.9,2.3,27.4-7.5l6.3-11.1
				c5.5-9.7,2.2-22.2-7.3-27.8l-39.1-22.8c-2.4-1.4-4.9-2.3-7.5-2.6c5.2-12.4,8.9-25.3,11.2-38.4c2.1,0.8,4.5,1.2,6.8,1.2l45,0
				c11.1-0.1,20.1-9.2,20.1-20.3v-12.8c0-11.2-9-20.3-20.1-20.2h-45c-1.9,0-3.8,0.3-5.5,0.9c-1.7-13.7-5-27.4-9.9-40.6
				c1.9-0.4,3.8-1.1,5.6-2.2l39-22.9c9.5-5.6,12.8-18,7.3-27.6l-6.3-11.1c-5.5-9.6-17.8-12.9-27.2-7.3l-39,22.8
				c-1.6,1-3,2.1-4.3,3.5c-8.8-11.6-18.8-21.7-29.9-30.3c2.3-1.7,4.3-3.8,5.8-6.4l22.5-39.4c5.5-9.7,2.3-22-7.3-27.6l-10.9-6.3
				c-9.5-5.5-21.7-2.2-27.2,7.5L665.1,299c-1.5,2.7-2.4,5.6-2.6,8.5c-14.5-5.8-29.8-9.6-45.3-11.1c1.2-2.5,1.8-5.4,1.8-8.3l0.1-45.3
				c0.1-11.1-8.8-20.1-19.8-20h-12.6c-10.9,0.1-19.8,9.1-19.8,20.2l-0.2,45.3c0,3.6,0.9,7,2.6,10c-11.6,2.2-23.1,5.5-34.3,10.1
				c-0.5-1.7-1.1-3.4-2.1-5l-22.1-39.2c-5.5-9.6-17.6-12.8-27.1-7.3l-10.8,6.4c-9.4,5.6-12.8,17.9-7.3,27.4l22.1,39.2
				c1.1,1.8,2.3,3.4,3.8,4.7c-11.3,9.3-21.1,19.8-29.5,31.2c-1.7-2.9-4.1-5.4-7.2-7.2l-38.4-22.5c-9.4-5.6-21.5-2.2-27.1,7.4
				l-6.3,11.1c-5.5,9.6-2.3,21.9,7.1,27.5l38.5,22.6c3.4,2,7.3,2.8,11,2.6c-5.5,14.6-9.1,29.8-10.7,45.2c-2.1-0.9-4.5-1.3-7-1.3
				l-44.6,0.1c-10.9,0-19.9,9-19.9,20.2l-0.1,12.7c-0.1,11.2,8.8,20.2,19.7,20.2l44.7-0.1c3.4,0,6.5-0.9,9.2-2.4
				c1.9,10.6,4.9,21.2,8.9,31.5c-2.5,0.4-5,1.2-7.3,2.6l-38.8,22.8c-9.6,5.6-12.9,18-7.5,27.6l6.2,11.1c5.4,9.6,17.6,13,27.1,7.4
				l38.9-22.7C460.6,581.1,462.5,579.3,464.1,577.3z M510.7,523.3c-27.6-48.9-10.9-111.5,37.3-139.8
				c48.2-28.2,109.8-11.8,137.5,37.1c27.8,49,11.2,111.8-37.2,140.1C600,589.2,538.4,572.4,510.7,523.3z"/>
			<path class="st2" d="M293,397.5c28.3-118.4,56-163,63.4-179.7c7.4-16.7,31.5-49.9,65.7-56.8c34.5-7,82.8,13.8,87.2,15.8
				c4.5,2,44.7,16.7,61.5,43.5c16.9,26.8,15.3,62.5-2.8,106.6c-18.6,45.3-43.3,82.4-51.3,101.5c-6,14.2-9.8,36.9-7.5,87.6
				c2.4,50.5-1.3,91.4-18.8,116.4c-15.7,22.4-46.2,40.5-99.3,39.5c-53.1-0.9-77.4-24.9-91.8-49.6C282.6,593.7,264.6,516,293,397.5z"
				/>
			<path class="st3" d="M316.1,395.1c27.2-107.6,48.8-146,56.3-160.1c9.4-18,23.4-43.6,52.2-49.7c29-6.2,69,10.8,72.8,12.6
				c3.8,1.8,39.6,13.9,53.8,37.6c14.2,23.6,9,55.2-7,93.7c-17,40.7-39,73.8-45.8,90.6c-5,12.5-11.5,34.7-9.5,79.3
				c2,44.5,0.3,94.8-14.4,116.8c-13.2,19.7-36.6,35.4-81.2,34.5c-44.6-0.9-65.1-22-77.2-43.6C301.9,581.5,289.8,498.7,316.1,395.1z"
				/>
			<g>
				<path class="st4" d="M424.1,297.8c1.1,4,2.6,7.7,4.5,11.2c-0.6,0.2-1.2,0.5-1.7,0.9l-10.3,7.9c-2.5,1.9-3,5.5-1,8.1l2.2,2.9
					c1.8,2.5,5.5,3.1,8,1.1l10.3-7.9c0.6-0.4,1.1-1,1.4-1.5c2.2,2.2,4.7,4.2,7.3,5.9c-0.5,0.5-1,1.2-1.4,2l-5,12
					c-1.2,3,0.2,6.4,3.2,7.6l3.3,1.5c3,1.2,6.4-0.1,7.5-3.1l5.1-12.1c0.2-0.6,0.3-1.2,0.4-1.8c3.6,1.1,7.3,1.7,11.1,1.9
					c-0.1,0.7-0.2,1.4-0.1,2l1.7,13c0.4,3.1,3.3,5.4,6.4,5.1l3.6-0.5c3.2-0.4,5.4-3.3,5-6.5l-1.7-13c0-0.5-0.2-0.9-0.4-1.4
					c4-1,7.8-2.4,11.4-4.2c0.1,0.9,0.4,1.7,1,2.3l7.8,10.5c1.9,2.6,5.5,3,8.1,1.2l2.9-2.2c2.5-1.9,3-5.6,1.1-8.1l-7.8-10.5
					c-0.5-0.7-1.1-1.1-1.7-1.5c2.8-2.7,5.2-5.7,7.2-8.9c0.5,0.5,1,0.8,1.6,1.1l12,5.2c3,1.3,6.3-0.2,7.5-3.1l1.4-3.4
					c1.2-2.9-0.2-6.3-3.1-7.5l-11.9-5.1c-0.5-0.2-1.1-0.4-1.6-0.5c1.1-3.8,1.7-7.8,1.8-11.8c0.6,0.1,1.2,0.1,1.7,0.1l12.9-1.6
					c3.2-0.3,5.4-3.3,5-6.5l-0.5-3.6c-0.3-3.2-3.3-5.4-6.4-5l-12.9,1.6c-0.5,0.1-1.1,0.2-1.5,0.4c-1.1-4.1-2.7-7.9-4.6-11.5
					c0.8-0.1,1.6-0.4,2.2-1l10.3-7.9c2.5-1.9,3-5.5,1.2-8.1l-2.2-3c-1.9-2.5-5.6-3-8.1-1.1l-10.2,8c-0.8,0.5-1.3,1.2-1.7,1.9
					c-3.2-3.2-6.9-5.9-10.9-8.1c0.6-0.6,1-1.2,1.4-2l5-12c1.2-3-0.2-6.4-3.1-7.7l-3.4-1.4c-2.9-1.3-6.3,0.1-7.5,3.1l-5,12
					c-0.3,1-0.5,1.9-0.3,2.9c-3.3-0.8-6.8-1.1-10.3-1.2c0.1-0.5,0.1-1.1,0-1.6l-1.6-12.9c-0.4-3.2-3.3-5.5-6.5-5.1l-3.6,0.5
					c-3.1,0.3-5.3,3.2-5,6.4l1.6,13c0.1,0.6,0.3,1.1,0.5,1.7c-4,1.2-7.9,2.8-11.4,4.9c-0.1-0.9-0.4-1.9-1.1-2.7l-7.9-10.4
					c-1.9-2.6-5.6-3.1-8-1.2l-2.9,2.2c-2.5,2-3,5.6-1.1,8.1l7.9,10.4c0.7,0.9,1.6,1.7,2.6,2c-3,3.2-5.7,6.8-7.8,10.8
					c-0.4-0.5-1.1-0.9-1.7-1.1l-12-5.2c-2.9-1.2-6.3,0.2-7.5,3.1l-1.4,3.4c-1.2,2.9,0.1,6.3,3.1,7.6l12,5.1c0.8,0.4,1.7,0.5,2.7,0.4
					c-0.7,3-1,6.2-1.1,9.4c-0.7-0.2-1.4-0.2-2.2-0.2l-12.9,1.6c-3.2,0.4-5.4,3.3-5,6.5l0.4,3.6c0.5,3.2,3.3,5.5,6.5,5.1l12.9-1.6
					C422.8,298.4,423.5,298.2,424.1,297.8z"/>
				<path class="st1" d="M442.5,288.9c-2-16.1,9.3-30.8,25.2-32.8c15.9-2,30.6,9.5,32.6,25.5c2,16.2-9.3,30.8-25.2,32.8
					C459.1,316.5,444.5,305,442.5,288.9z"/>
			</g>
			<g>
				<g>
					<path class="st4" d="M354.2,352c-3.6-14.6,5.2-29.3,19.7-32.8c14.7-3.5,29.3,5.7,32.7,20.5c3.3,14.6-5.8,29-20.2,32.3
						C372.2,375.2,357.8,366.3,354.2,352z"/>
					<path class="st4" d="M406.3,335.7l7-1.6c1.7-0.4,3.4,0.6,3.8,2.4l0.4,1.9c0.4,1.7-0.7,3.4-2.4,3.8l-6.8,1.6
						c-1.8,0.4-3.5-0.7-3.8-2.3l-0.6-1.9C403.6,337.9,404.6,336.2,406.3,335.7z"/>
					<path class="st4" d="M345.7,349.7l6.7-1.6c1.7-0.4,3.4,0.7,3.8,2.4l0.5,1.9c0.4,1.7-0.6,3.4-2.3,3.7l-6.7,1.5
						c-1.7,0.4-3.3-0.6-3.8-2.3l-0.5-1.9C343,351.8,344,350.1,345.7,349.7z"/>
					<path class="st4" d="M389.7,371.8l1.5,6.8c0.4,1.7-0.7,3.3-2.3,3.7l-2,0.4c-1.7,0.4-3.3-0.7-3.7-2.3l-1.6-6.7
						c-0.4-1.7,0.6-3.3,2.3-3.8l1.9-0.4C387.6,369.1,389.2,370.1,389.7,371.8z"/>
					<path class="st4" d="M375.9,310.6l1.7,7.1c0.5,1.7-0.7,3.4-2.4,3.9l-1.9,0.4c-1.7,0.4-3.4-0.6-3.8-2.3l-1.7-7.1
						c-0.4-1.8,0.7-3.5,2.4-3.9l1.9-0.5C373.7,307.8,375.4,308.9,375.9,310.6z"/>
					<path class="st4" d="M347.6,332.9l6.7,2.1c1.7,0.5,2.7,2.3,2.2,4l-0.6,1.9c-0.5,1.6-2.2,2.6-3.8,2.1l-6.7-2
						c-1.7-0.5-2.6-2.3-2.2-3.9l0.5-1.9C344.2,333.4,346,332.5,347.6,332.9z"/>
					<path class="st4" d="M358.3,317.2l5,5.3c1.2,1.3,1.1,3.3-0.1,4.5l-1.4,1.4c-1.2,1.3-3.2,1.2-4.5-0.1l-4.9-5.2
						c-1.2-1.3-1.2-3.3,0-4.5l1.4-1.4C355.1,315.9,357.1,316,358.3,317.2z"/>
					<path class="st4" d="M401.9,363.8l4.8,5.1c1.2,1.3,1.1,3.3-0.1,4.4l-1.5,1.4c-1.2,1.1-3.2,1.1-4.4-0.2l-4.8-5.1
						c-1.1-1.3-1-3.2,0.2-4.4l1.5-1.4C398.7,362.5,400.8,362.6,401.9,363.8z"/>
					<path class="st4" d="M363.4,367.8l-5,4.7c-1.2,1.2-3.1,1.1-4.3-0.1l-1.4-1.4c-1.1-1.2-1.1-3.2,0.1-4.3l5-4.8
						c1.2-1.1,3.2-1.1,4.3,0.2l1.4,1.4C364.7,364.7,364.7,366.7,363.4,367.8z"/>
					<path class="st4" d="M408.8,324.4l-5.2,5c-1.3,1.1-3.3,1.1-4.5-0.1l-1.4-1.5c-1.2-1.3-1.1-3.3,0.2-4.5l5.2-5
						c1.3-1.2,3.2-1.2,4.5,0.2l1.3,1.5C410.2,321.1,410.1,323.2,408.8,324.4z"/>
					<path class="st4" d="M407.7,350.6l6.8,2c1.6,0.5,2.6,2.3,2,3.9l-0.5,1.9c-0.5,1.7-2.2,2.6-3.9,2.2l-6.7-2.1
						c-1.7-0.4-2.6-2.2-2.1-3.8l0.6-1.9C404.3,351,406.1,350.1,407.7,350.6z"/>
					<path class="st4" d="M393.4,312.4l-2.1,6.9c-0.5,1.7-2.2,2.6-3.9,2.2l-1.9-0.6c-1.7-0.5-2.7-2.3-2.1-4l2-7
						c0.5-1.7,2.3-2.7,4-2.2l1.9,0.6C393,308.9,393.9,310.7,393.4,312.4z"/>
					<path class="st4" d="M375.4,373.2l-1.9,6.6c-0.5,1.6-2.2,2.5-3.8,2l-1.9-0.6c-1.6-0.5-2.6-2.1-2.1-3.8l1.9-6.7
						c0.4-1.6,2.2-2.6,3.8-2l1.8,0.6C375,369.8,375.9,371.5,375.4,373.2z"/>
				</g>
				<path class="st1" d="M364.7,349.8c-2-8.5,3.1-17.2,11.7-19.2c8.5-2.1,17.1,3.3,19.2,11.9c2,8.6-3.4,17.1-11.8,19.1
					C375.3,363.6,366.7,358.3,364.7,349.8z"/>
			</g>
			<path class="st5" d="M210.1,437.8c1,1.5,2.3,2.8,3.6,3.9c-0.2,0.2-0.4,0.4-0.5,0.6l-3,4.8c-0.7,1.1-0.3,2.7,0.8,3.4l1.4,0.9
				c1.2,0.8,2.7,0.5,3.4-0.7l3-4.8c0.2-0.2,0.3-0.5,0.3-0.8c1.3,0.6,2.6,1,3.9,1.3c-0.1,0.3-0.2,0.7-0.2,1l-0.2,5.7
				c0,1.5,1.1,2.6,2.5,2.7l1.6,0.1c1.4,0,2.6-0.9,2.6-2.4l0.2-5.7c0-0.3,0-0.6-0.1-0.9c1.7,0,3.4-0.4,5-0.8c0.1,0.2,0.2,0.6,0.4,0.8
				l2.8,5.2c0.7,1.2,2.3,1.8,3.5,1.1l1.5-0.7c1.3-0.6,1.8-2.2,1.1-3.5l-2.9-5.2c-0.1-0.1-0.2-0.3-0.4-0.5c1.5-1,3-2.2,4.2-3.5
				c0.2,0.3,0.4,0.7,0.9,0.9l5.2,3.1c1.3,0.9,2.9,0.5,3.8-0.8l0.9-1.3c0.8-1.3,0.5-2.9-0.9-3.7l-5.2-3.2c-0.3-0.1-0.6-0.3-1-0.4
				c0.7-1.5,1.4-3.2,1.7-4.9c0.2,0.1,0.5,0.2,0.8,0.2l6.2,0.2c1.5,0.1,2.8-1,2.9-2.6l0-1.7c0-1.4-1.2-2.7-2.7-2.7l-6.2-0.2
				c-0.3,0-0.5,0-0.7,0.1c-0.2-1.8-0.6-3.6-1.2-5.4c0.3,0,0.5-0.2,0.8-0.3l5.5-2.9c1.3-0.7,1.8-2.3,1.1-3.6l-0.8-1.5
				c-0.8-1.3-2.4-1.7-3.8-1.1l-5.4,2.9c-0.2,0.1-0.4,0.3-0.6,0.5c-1.2-1.5-2.5-2.9-3.9-4c0.4-0.2,0.6-0.6,0.8-0.9l3.2-5.2
				c0.8-1.3,0.5-2.9-0.9-3.7l-1.5-0.8c-1.2-0.7-2.9-0.3-3.7,0.9l-3.1,5.1c-0.2,0.4-0.4,0.7-0.5,1.1c-1.9-0.8-4-1.3-6.1-1.6
				c0.2-0.3,0.2-0.7,0.2-1l0.2-5.9c0-1.5-1.1-2.6-2.5-2.6h-1.7c-1.4,0-2.6,1.2-2.7,2.6l-0.2,5.8c0,0.5,0.1,0.9,0.4,1.3
				c-1.5,0.3-3,0.7-4.5,1.3c-0.1-0.3-0.1-0.5-0.2-0.7l-2.8-5c-0.7-1.3-2.2-1.7-3.5-0.9l-1.4,0.8c-1.1,0.7-1.7,2.3-0.9,3.5l2.7,4.9
				c0.2,0.3,0.3,0.6,0.5,0.7c-1.4,1.2-2.8,2.5-3.9,4c-0.1-0.4-0.5-0.7-0.8-1l-4.8-2.8c-1.2-0.8-2.7-0.4-3.4,0.8l-0.8,1.3
				c-0.7,1.3-0.3,2.7,0.8,3.5l4.7,3c0.5,0.2,1,0.4,1.5,0.3c-0.7,1.8-1.2,3.7-1.5,5.7c-0.3-0.2-0.6-0.2-0.9-0.2l-5.5-0.1
				c-1.3-0.1-2.5,1-2.5,2.4v1.6c-0.1,1.4,1,2.5,2.4,2.6l5.5,0.2c0.4,0,0.8-0.1,1.1-0.3c0.2,1.4,0.6,2.7,1.1,4c-0.3,0-0.7,0.1-1,0.2
				l-4.9,2.7c-1.2,0.6-1.6,2.1-1,3.3l0.7,1.4c0.7,1.3,2.2,1.7,3.4,1l4.9-2.5C209.7,438.4,209.9,438.1,210.1,437.8z M216.2,431.4
				c-3.4-6.2-1.1-14.1,5.2-17.5c6.4-3.6,14.5-1.3,18,5.1c3.6,6.4,1.1,14.5-5.5,17.9C227.5,440.2,219.6,437.7,216.2,431.4z"/>
			<rect x="204.6" y="465.2" class="st5" width="46.6" height="80.2"/>
			<g>
				<polygon class="st5" points="541.7,398.6 662.8,398.6 662.8,430.2 587.5,430.2 587.4,453.7 656.7,453.5 656.7,483.6 
					587.5,483.6 587.5,511.4 664.1,512.5 664.1,544.9 541.7,544.9 				"/>
				<polygon class="st5" points="718.7,544.9 718.7,398.6 778.6,398.6 800.4,489.1 823.9,398.6 883,398.6 883,544.9 846,544.9 
					846.2,430.7 817.5,544.9 784,544.9 756.3,435 755.8,544.9 				"/>
				<g>
					<path class="st5" d="M424.5,446.3l42.7-8.8c0,0-3.6-21.6-23.7-33.3c-12.6-7.4-44.9-12.5-69.5-6.3c-14.5,3.7-41.6,9.6-51.2,56.9
						c-8.8,43.2,12.5,71.5,25.7,79.9c15.7,10,38.9,16.1,76.4,10.7c5.1-0.7,10.1-2.3,14.9-4.4c16.2-7.1,29.4-20.1,29.4-25.7
						c0-8,0-53.1,0-53.1l-69.4-0.1v30.1l30.2,0.1l-0.1,13.1c0,0-13.2,11.4-32.9,9.5c-19.6-1.8-28.6-15.5-30.3-30
						c-1.6-13.8,0.3-44,14-51c13.4-6.8,27.4-6.7,35.4-0.4C424,439.6,424.5,446.3,424.5,446.3z"/>
					<path class="st5" d="M469.2,524v-15.2L429,527.6l15.7,11c0,0,8.2-3.9,12.9-6.7C462.2,529.1,468.7,524.8,469.2,524z"/>
				</g>
			</g>
		</g>
		<g>
			<path class="st6" d="M307.8,882.6v34H197.6v-8.7c59.6-68.1,67.8-79.1,67.8-91.4c0-7.8-5.3-13-12.9-13c-8.3,0-13.4,5.4-13.4,14.1
				v2.8H200v-2.7c0-29,19.6-48.2,52.1-48.2c31.4,0,53.1,18.7,53.1,45.7c0,18.1-6.9,31.9-38.6,67.5H307.8z"/>
			<path class="st6" d="M400.6,845.1c0-46,25.3-75.4,64.8-75.4s64.8,29.4,64.8,75.4c0,45.8-25.5,75.4-64.8,75.4
				S400.6,890.9,400.6,845.1z M489.7,845.2c0-26.4-8.8-41.3-24.2-41.3c-15.6,0-24.2,14.7-24.2,41.2c0,26.4,8.6,41.2,24.2,41.2
				C481.1,886.3,489.7,871.6,489.7,845.2z"/>
			<path class="st6" d="M729.7,882.6v34H619.5v-8.7c59.6-68.1,67.8-79.1,67.8-91.4c0-7.8-5.3-13-12.9-13c-8.3,0-13.4,5.4-13.4,14.1
				v2.8h-39.2v-2.7c0-29,19.6-48.2,52.1-48.2c31.4,0,53.1,18.7,53.1,45.7c0,18.1-6.9,31.9-38.6,67.5H729.7z"/>
			<path class="st6" d="M882.4,773.1v143.5h-39.9v-111h-22v-32.5H882.4z"/>
		</g>
	</g>
</g>
</svg>
