<?xml version="1.0" encoding="utf-8"?>
<!-- Generator: Adobe Illustrator 24.3.0, SVG Export Plug-In . SVG Version: 6.00 Build 0)  -->
<svg version="1.1" id="Layer_1" xmlns="http://www.w3.org/2000/svg" xmlns:xlink="http://www.w3.org/1999/xlink" x="0px" y="0px"
	 viewBox="0 0 115.7 121.3" style="enable-background:new 0 0 115.7 121.3;" xml:space="preserve">
<style type="text/css">
	.st0{fill:#233442;}
	.st1{fill:#84CEC3;}
	.st2{fill:#F3FAFB;}
	.st3{fill:#F9DB87;}
	.st4{fill:#FEBC12;}
	.st5{fill:#F99C1C;}
</style>
<rect class="st0" width="115.7" height="121.3"/>
<path class="st1" d="M112.2,72.6c-3-1.9-6-3.8-9-5.6c-0.6-0.4-1-1.1-0.8-1.8c0.1-0.9,0.2-1.7,0.2-2.6c0.1-2.2,0-4.4-0.2-6.6
	c-0.2-0.7,0.2-1.5,0.9-1.8c2.9-1.8,5.9-3.7,8.9-5.6c0.2-0.1,0.3-0.2,0.5-0.3c-1-2.6-2.2-5.2-3.2-7.8c-8.1,3.3-16.2,6.7-24.3,10v0
	l-0.2,0.1l-2.6,1l0,0c0.4,1.2,0.8,2.3,1,3.6c0.4,1.8,0.6,3.6,0.6,5.3c0,1.9-0.2,3.7-0.6,5.5c-2.1,9.8-9.8,17.5-19.6,19.7
	c-3.6,0.8-7.3,0.8-10.9,0c-9.8-2.1-17.5-9.8-19.7-19.6c-0.4-1.8-0.6-3.6-0.6-5.5c0-1.8,0.2-3.6,0.6-5.3c0.3-1.3,0.6-2.5,1.1-3.8
	l-1.7-0.7L32,50.8l0,0l-0.1,0l-0.9-0.3l0,0l0,0c-8.2-3.2-16.2-6.7-24.3-10c0,0-0.1,0.1-0.1,0.2c-0.6,1.2-1,2.5-1.6,3.7
	c-0.2,0.4-1.7,3.7-1.7,4c0.2,0.2,0.4,0.3,0.6,0.4c3,1.9,6,3.9,9.1,5.9c0.6,0.3,0.9,1,0.8,1.7c-0.2,2-0.2,3.9-0.2,5.9
	c0,1.2,0.2,2.3,0.2,3.4c0.1,0.6-0.2,1.1-0.7,1.4l-0.4,0.2C9.9,68.9,7,70.8,4,72.6c-0.2,0.1-0.3,0.2-0.5,0.4
	c2.5,5.9,4.9,11.8,7.3,17.7c0.1,0,0.2-0.1,0.4-0.1c3.6-0.8,7.3-1.7,11-2.5c0.6-0.2,1.2,0,1.6,0.5c1.9,2.4,4.1,4.6,6.5,6.5
	c0.6,0.4,0.8,1.1,0.6,1.8c-0.8,3.5-1.6,7-2.4,10.5c0,0.2,0,0.3-0.1,0.5c5.9,2.5,11.8,5,17.7,7.5c0.2-0.3,0.3-0.5,0.5-0.7
	c1.8-3,3.7-6,5.5-9c0.3-0.6,0.9-0.9,1.5-0.9c1.3,0.1,2.7,0.2,4,0.2c1.8,0,3.6,0,5.4-0.3c0.5-0.1,1.1,0.1,1.4,0.6
	c0.1,0.2,0.2,0.4,0.3,0.5c1.8,3,3.6,6.1,5.4,9.1l0.3,0.5c5.9-2.4,11.8-4.9,17.6-7.3c-0.1-0.2-0.1-0.4-0.1-0.6
	c-0.7-3.6-1.6-7.1-2.4-10.6c-0.2-0.6,0-1.3,0.5-1.7c2.4-1.9,4.6-4.1,6.5-6.5c0.4-0.6,1.1-0.8,1.8-0.6l10.8,2.5c0.2,0,0.3,0,0.5,0
	c2.5-5.9,4.9-11.7,7.3-17.6C112.7,72.9,112.4,72.8,112.2,72.6z"/>
<path class="st2" d="M64.6,78c3.5-4.6,7.4-10.8,7.4-15.6c0-1-0.1-2-0.3-3v-0.1c-0.7-3.5-1.7-6.9-3-10.2c0-0.1-0.1-0.2-0.2-0.2
	c-1.6-3.6-5.1-5.7-10.1-5.7s-8.4,2-10.1,5.6c0,0,0,0,0,0c-1.5,3.3-2.6,6.7-3.3,10.2c0,0,0,0.1,0,0.1c-0.2,1.1-0.3,2.1-0.3,3.2
	c0,4.4,3.4,10,6.6,14.5l6.2-6.7c-2.7-3.2-8.2-10.3-8.8-15.5c2.1-2.4,5.4-3.8,9.7-3.8s7.6,1.3,9.7,3.8c-0.6,5.6-9.3,16.2-9.3,16.2
	l-6.5,7.3c0,0-13.1,14.8-17.6,19.7c-0.2,0.3-0.2,0.7,0,0.9c1.7,2,3.7,3.8,5.9,5.2c0.3,0.2,0.6,0.5,1.1,0l16.5-18.6
	C58.9,84.6,62.2,80.9,64.6,78z"/>
<path class="st2" d="M82.1,98L65.3,79.2c-1.9,2.5-4,4.9-6.2,7.1L75,104c0.2,0.3,0.6,0.4,0.9,0.2c0,0,0.1-0.1,0.1-0.1
	c2.2-1.5,4.3-3.3,6.2-5.2C82.4,98.7,82.4,98.3,82.1,98z"/>
<path class="st3" d="M59.7,6c12.3,0.2,24.6,5.2,34.7,13.6c2.4,2,4.6,4.2,6.6,6.7c1.1,1.4,2.2,2.8,3.1,4.3c0.3,0.6,0.6,1.2,0.8,1.9
	c0.2,0.6,0.4,1.3,0.3,2c0,0.8-0.5,1.4-1.3,1.5c0,0-0.1,0-0.1,0c-2.5,0.1-3.9-2.6-5.1-4.4c-1.6-2.3-3.5-4.5-5.6-6.4
	C73.3,6.4,42.3,6.6,22.8,25.5c-2.6,2.6-5,5.5-6.9,8.7c-0.6,0.9-1.5,1.5-2.6,1.8c-0.4,0.1-0.9,0.1-1.3,0c-0.9-0.4-1-1.7-0.8-2.7
	c0.5-1.6,1.2-3,2.2-4.3c4.4-6.1,10-11.3,16.5-15c5.4-3.3,11.3-5.7,17.4-6.9C51.5,6.3,55.6,6,59.7,6z"/>
<path class="st4" d="M59.2,17.6c7.3,0.2,14.4,2.3,20.6,6c5,2.9,9.4,6.9,12.7,11.6c0.5,0.8,0.8,1.6,1,2.4c0,0.1,0.1,0.3,0.1,0.4
	c0.1,0.9-0.6,1.7-1.5,1.8c-0.2,0-0.3,0-0.5,0c-0.6-0.2-1.1-0.4-1.6-0.7c-1.1-0.8-2-1.7-2.9-2.8c-1.4-1.4-2.8-2.8-4.3-4.2
	c-4.9-4.8-10.9-7.3-17.8-8.9c-8-1.3-16.3,0.1-23.4,3.9c-2.4,1.3-4.7,2.9-6.7,4.8c-2,1.9-3.9,3.9-5.9,5.8c-0.5,0.5-1.1,1-1.6,1.4
	c-0.5,0.4-1,0.6-1.6,0.7c-0.8,0.2-1.7-0.2-2-1.1c-0.1-0.2-0.1-0.5,0-0.8c0.2-1.2,0.7-2.4,1.4-3.4c1.1-1.6,2.4-3,3.7-4.4
	c5.5-5.5,12.4-9.5,20-11.4C52.3,18,55.7,17.6,59.2,17.6z"/>
<path class="st5" d="M59.1,28.8c5.2,0.1,10.3,1.7,14.6,4.6c3.4,2.2,7.6,6.2,8.6,9c0.1,0.4,0.2,0.9,0.2,1.3c0.2,1.1-1.5,2.1-2.6,1.8
	c-0.4-0.1-0.8-0.3-1.1-0.5c-3.1-3.8-4.3-5.2-6.1-6.6c-3.7-2.9-8.3-4.6-13-4.8c-5.6-0.3-13,1.9-17.6,6.9c-0.8,0.8-2.2,2.7-3,3.5
	c-0.4,0.4-0.9,0.8-1.4,1.2c-1,0.6-2.2,0.2-2.7-0.7c-0.1-0.2-0.2-0.5-0.3-0.8c0-0.6,0.2-1.3,0.4-1.9c0.5-1.1,1.1-2,1.9-2.9
	c4.2-4.8,9.7-8.1,15.9-9.5C55,29,57.1,28.8,59.1,28.8z"/>
<text transform="matrix(1 0 0 1 -64.9769 62.0195)"><tspan x="0" y="0" style="font-family:'MyriadPro-Regular'; font-size:12px;">#F99C1C</tspan><tspan x="0" y="14.4" style="font-family:'MyriadPro-Regular'; font-size:12px;">#FEBC12</tspan><tspan x="0" y="28.8" style="font-family:'MyriadPro-Regular'; font-size:12px;">#FFC544</tspan></text>
</svg>
