<svg xmlns="http://www.w3.org/2000/svg" xmlns:xlink="http://www.w3.org/1999/xlink" xml:space="preserve" style="shape-rendering:geometricPrecision;text-rendering:geometricPrecision;image-rendering:optimizeQuality;" viewBox="0 0 2.33333 2.9166625" x="0px" y="0px" fill-rule="evenodd" clip-rule="evenodd"><defs><style type="text/css">
   
    .fil1 {fill:none}
    .fil0 {fill:black}
   
  </style></defs><g><g><path class="fil0" d="M0.811189 0.560205c0.00348819,-0.00550787 0.00752756,-0.0105591 0.0121378,-0.0152795 0.00472047,-0.00471654 0.00988189,-0.00864961 0.0152795,-0.0121378l-0.213811 -0.213807c-0.00752756,-0.00752756 -0.0198858,-0.00752756 -0.0274134,0 -0.0075315,0.00752756 -0.0075315,0.0198858 0,0.0274173l0.213807 0.213807z"/><path class="fil0" d="M1.97639 1.49644c-0.00752756,-0.00764173 -0.0198858,-0.00764173 -0.0274173,0l-0.0733622 0.0733622 -0.210433 -0.210429 -0.0274173 0.0274134 0.210433 0.210433 -0.077752 0.077752c-0.0076378,0.00752756 -0.0076378,0.0198858 0,0.0274173 0.0038189,0.0038189 0.00875984,0.00572835 0.0137008,0.00572835 0.00494094,0 0.00988189,-0.00190945 0.0137008,-0.00572835l0.178531 -0.178531c0.00765354,-0.00754724 0.00765354,-0.0199055 1.5748e-005,-0.0274173z"/><path class="fil0" d="M0.466154 1.62092l0.251894 0c0.0106693,0 0.0194331,0.00864961 0.0194331,0.0194291l0 0.291213c0,0.0106693 -0.00864961,0.0194291 -0.0194331,0.0194291l-0.252335 1.5748e-005 0 0.0170787c0,0.0286496 0.023248,0.0519134 0.0519134,0.0519134l0.344689 0c0.0286457,0 0.0519134,-0.023248 0.0519134,-0.0519134l0 -0.405362 -0.447965 0 -0.000110236 0.0581969z"/><circle class="fil0" cx="1.38025" cy="1.86462" r="0.0970711"/><polygon class="fil0" points="0.887693,1.52385 0.812311,1.44611 0.56761,1.44611 0.492213,1.52385 "/><polygon class="fil0" points="0.698728,1.65968 0.466154,1.65968 0.465713,1.91215 0.698728,1.91215 "/><rect class="fil0" x="0.578834" y="1.36714" width="0.222235" height="0.0402123"/><circle class="fil0" cx="0.448286" cy="0.874353" r="0.0970711"/><polygon class="fil0" points="0.853315,1.32836 0.853315,1.2714 0.526606,1.2714 0.526606,1.32836 0.559406,1.32836 0.820516,1.32836 "/><path class="fil0" d="M0.890394 0.877161l0.503555 0.503555 0.0701102 -0.0701142 -0.409071 -0.409071c0,0 0,0 0,0 0,0 0,0 0,0l-0.0650472 -0.0650433c-0.00752756,-0.0075315 -0.00752756,-0.0198898 0,-0.0274173 0.00764173,-0.00752756 0.0198898,-0.00752756 0.0274173,0l0.0513465 0.0513465 0.0513425 -0.0513465c0.00764173,-0.00752756 0.0198898,-0.00752756 0.0274173,0 0.0075315,0.00752756 0.0075315,0.0198858 0,0.0274173l-0.0513425 0.0513425 0.0701102 0.0701142 0.0513465 -0.0513465c0.00752756,-0.00752756 0.0198858,-0.00752756 0.0274173,0 0.0076378,0.0075315 0.0076378,0.0198898 0,0.0274173l-0.0513465 0.0513465 0.0701102 0.0701102 0.0513465 -0.0513425c0.00752756,-0.0075315 0.0198898,-0.0075315 0.0274173,0 0.0076378,0.0076378 0.0076378,0.0198858 0,0.0274134l-0.0513465 0.0513465 0.200205 0.200205 0.167736 -0.167626 -0.503555 -0.503555c-0.0115709,-0.0115709 -0.0268504,-0.0174094 -0.042126,-0.0174094 -0.0152795,0 -0.0304488,0.00583858 -0.0421299,0.0174094l-0.041685 0.041685c0,0 0,0 0,0 0,0 0,0 0,0l-0.139433 0.139437c-0.0230472,0.0231063 -0.0230472,0.0608622 0.000204724,0.084126z"/><circle class="fil0" cx="1.69091" cy="0.622" r="0.116501"/><path class="fil0" d="M1.71663 1.11286l-0.0162874 0.0162913c0,0 0,0 0,0l-0.292681 0.292681c0,0 0,0 0,0l-0.0162913 0.0162874c-0.00932677,0.00932677 -0.0144882,0.0217992 -0.0144882,0.0350551 0,0.0132598 0.00516142,0.0257283 0.0144882,0.0350591 0.0193189,0.0193189 0.0507756,0.0193189 0.0701142,0l0.325256 -0.32526c0.00933071,-0.00933071 0.0144921,-0.0217992 0.0144921,-0.0350551 0,-0.0132598 -0.00516142,-0.0257283 -0.0144921,-0.0350591 -0.0193346,-0.0193189 -0.0507913,-0.0193189 -0.0701102,0z"/><path class="fil0" d="M0.850839 0.642457l0.0677441 0.0674134 0.0700039 -0.0700039 -0.0676378 -0.0675236c-0.0193189,-0.0193189 -0.0507756,-0.0193189 -0.0701102,0 -0.0193189,0.0193189 -0.0193189,0.0507795 0,0.0701142z"/></g></g><rect class="fil1" width="2.33333" height="2.33333"/><text x="0" y="17.33333" fill="#000000" font-size="5px" font-weight="bold" font-family="'Helvetica Neue', Helvetica, Arial-Unicode, Arial, Sans-serif">Created by Vector Valley</text><text x="0" y="22.33333" fill="#000000" font-size="5px" font-weight="bold" font-family="'Helvetica Neue', Helvetica, Arial-Unicode, Arial, Sans-serif">from the Noun Project</text></svg>