<svg xmlns="http://www.w3.org/2000/svg" xmlns:xlink="http://www.w3.org/1999/xlink" version="1.1" x="0px" y="0px" viewBox="0 0 100 125" style="enable-background:new 0 0 100 100;" xml:space="preserve"><path d="M58,44.7L41,24.4c-2.1-2.6-2.6-6-1.2-9c0.8-1.8,2.3-3.2,4-4.1c0.1,0,0.1-0.1,0.2-0.1c1.1-0.5,2.3-0.8,3.5-0.8c0,0,0,0,0,0  c3.3,0,6.3,1.9,7.7,4.9c1.4,3,1,6.5-1.1,9.1l-1.2,1.5l11.3,13.3L58,44.7z M43,14.4c-0.5,0.5-1,1.1-1.3,1.8c-1.1,2.3-0.7,4.9,0.9,6.8  l15.6,18.7l3.1-2.7L50.8,26.6c0,0,0,0,0,0L45,19.7C43.7,18.2,43,16.3,43,14.4z M45.2,12.9c-0.4,1.9,0,3.9,1.4,5.5l5,5.9l1-1.2  c1.6-2,1.9-4.6,0.8-6.9c-1.1-2.3-3.3-3.7-5.8-3.7c0,0,0,0,0,0C46.7,12.5,46,12.6,45.2,12.9z"/><path d="M37.2,44.4c-0.2,0-0.5-0.1-0.7-0.2c-0.4-0.4-0.5-1-0.1-1.5L46.8,30c0.4-0.4,1-0.5,1.5-0.1c0.4,0.4,0.5,1,0.1,1.5L38,44  C37.8,44.2,37.5,44.4,37.2,44.4z"/><path d="M27.6,78.6c-0.4,0-0.8,0-1.1,0c-2.9,0-4.4-1.3-6.1-2.9c-2-1.8-4.4-4.1-10.7-5.7c-0.3-0.1-0.6-0.1-0.9,0l-0.1,0  c-0.7,0.2-1.2,0.7-1.5,1.3C7,72,7.1,72.6,7.5,73.2c0,0,0.1,0.1,0.1,0.1c0.4,0.4,0.4,1.1,0,1.4c-0.4,0.4-1.1,0.4-1.5,0  c0,0-0.1-0.1-0.2-0.2c-0.9-1.1-1.1-2.5-0.6-3.8c0.5-1.3,1.6-2.3,2.9-2.7l0.1,0c0.6-0.1,1.3-0.1,1.9,0c6.8,1.7,9.6,4.3,11.6,6.2  c1.6,1.5,2.5,2.4,4.7,2.4C45,76.6,61.3,75.2,64.3,75c0.6-0.1,1.1,0.4,1.1,0.9c0.1,0.6-0.4,1.1-0.9,1.1  C61.5,77.3,45.8,78.6,27.6,78.6z"/><path d="M76.6,93.6c-9.7,0-17.9-1.1-26-2.1c-7.3-1-14.1-1.9-21.6-1.9l-17.9,0c-2.8,0-3.7-1.2-7.6-6.5c-0.8-1.1-1.8-2.4-3-4  c-0.4-0.5-0.5-1.2-0.4-1.8c0.1-0.6,0.5-1.2,1.1-1.5l4.5-2.6c1.1-0.6,1.7-0.3,4.2,1c0.5,0.3,1.2,0.6,2,1.1c0.6,0.3,1.1,0.9,1.3,1.6  c0.2,0.7,0.1,1.4-0.2,2c-0.7,1.3-2.2,1.8-3.5,1.1l-2.3-1.1c-0.5-0.3-0.7-0.9-0.5-1.4c0.3-0.5,0.9-0.7,1.4-0.5l2.3,1.1  c0.3,0.1,0.6,0,0.8-0.2c0.1-0.1,0.1-0.3,0-0.4c0-0.2-0.1-0.3-0.3-0.3c-0.8-0.4-1.4-0.8-2-1.1c-1.1-0.6-1.9-1-2.2-1.1c0,0,0,0-0.1,0  l-4.5,2.6c0,0-0.1,0.1-0.1,0.1c0,0,0,0.1,0,0.1c1.2,1.6,2.2,2.9,3,4c3.8,5.1,4.3,5.6,6,5.6l17.9,0c7.6,0,14.5,1,21.9,1.9  c9.1,1.2,18.5,2.4,29.9,2.1c5-0.2,9.3-3.6,10.6-8.4c0.9-3.4,8.9-34.3,5.8-65.6c-0.4-4-3.1-7.3-6.9-8.4C90,9,89.7,8.9,89.5,8.8  c-4.2-1-8.6-0.1-12,2.7c-3.6,2.8-5.6,7-5.5,11.5c0,5.1,1.3,10.3,3.7,15.4c0.9,1.8,1.8,4.4,1.2,7.4c0,0.1-2.3,12.4-2,22.9  c0,0.6-0.4,1-1,1.1c-0.6,0-1.1-0.4-1.1-1c-0.4-10.7,2-23.2,2-23.4c0.4-2,0.1-3.8-1-6.2c-2.5-5.4-3.8-10.8-3.9-16.2  c0-5.1,2.3-9.9,6.3-13.1c3.9-3.1,9-4.2,13.8-3c0.3,0.1,0.6,0.2,1,0.3c4.6,1.4,7.9,5.4,8.3,10.2c3.2,31.7-4.9,62.9-5.8,66.4  c-1.6,5.7-6.6,9.7-12.5,9.9C79.4,93.6,78,93.6,76.6,93.6z"/><path d="M98.5,46.6H75.8c-0.6,0-1-0.5-1-1s0.5-1,1-1h22.7c0.6,0,1,0.5,1,1S99.1,46.6,98.5,46.6z"/><path d="M97,60.9H74c-0.6,0-1-0.5-1-1c0-0.6,0.5-1,1-1h23c0.6,0,1,0.5,1,1C98,60.5,97.6,60.9,97,60.9z"/><path d="M46.5,70.1l-22.2-7.6c-0.5-0.2-0.8-0.8-0.6-1.3c0.2-0.5,0.8-0.8,1.3-0.6l20.9,7.2c1.7-2.2,2.6-4.8,2.6-7.5L27.6,53  c-0.5-0.2-0.8-0.8-0.6-1.3c0.2-0.5,0.8-0.8,1.3-0.6l22.2,7.6l0,0.7c0.2,3.8-1,7.4-3.5,10.2L46.5,70.1z"/><path d="M70.9,72.6c-0.4,0-0.7,0-1.1-0.1l-5.7-1.6l-9-3.1c-0.5-0.2-0.8-0.8-0.6-1.3c0.2-0.5,0.8-0.8,1.3-0.6l8.9,3.1l5.7,1.6  c0.6,0.2,1.1,0,1.6-0.3c0.5-0.3,0.7-0.9,0.7-1.5c0-0.6,0.5-1,1-1c0.6,0,1,0.5,1,1c0,1.2-0.6,2.4-1.5,3.1  C72.6,72.4,71.8,72.6,70.9,72.6z"/><path d="M23.2,66.7c-0.1,0-0.2,0-0.3-0.1c-0.5-0.2-0.8-0.8-0.6-1.3l6.1-17.7c0.2-0.5,0.8-0.8,1.3-0.6c0.5,0.2,0.8,0.8,0.6,1.3  L24.2,66C24.1,66.4,23.7,66.7,23.2,66.7z"/><path d="M16.7,59.8c-0.1,0-0.2,0-0.3-0.1c-0.5-0.2-0.8-0.8-0.6-1.3l3.3-9.5c0.2-0.5,0.8-0.8,1.3-0.6c0.5,0.2,0.8,0.8,0.6,1.3  l-3.3,9.5C17.5,59.5,17.1,59.8,16.7,59.8z"/><path d="M26.3,57.8c-0.1,0-0.2,0-0.3-0.1l-8-2.7c-0.5-0.2-0.8-0.8-0.6-1.3c0.2-0.5,0.8-0.8,1.3-0.6l8,2.7c0.5,0.2,0.8,0.8,0.6,1.3  C27.1,57.6,26.7,57.8,26.3,57.8z"/><path d="M53.5,69.9c-0.3,0-0.6,0-0.9-0.2l-5.2-1.8c-0.5-0.2-0.8-0.8-0.6-1.3c0.2-0.5,0.8-0.8,1.3-0.6l5.2,1.8c0.3,0.1,0.7,0,0.9-0.3  c0.3-0.6,0.6-1.3,0.7-1.9c0.1-0.3-0.1-0.7-0.5-0.8L49,62.9c-0.5-0.2-0.8-0.8-0.6-1.3c0.2-0.5,0.8-0.8,1.3-0.6l5.2,1.8  c1.3,0.4,2,1.7,1.8,3.1c-0.1,0.9-0.4,1.8-0.9,2.6C55.4,69.3,54.4,69.9,53.5,69.9z"/><text x="0" y="115" fill="#000000" font-size="5px" font-weight="bold" font-family="'Helvetica Neue', Helvetica, Arial-Unicode, Arial, Sans-serif">Created by Andrei Yushchenko</text><text x="0" y="120" fill="#000000" font-size="5px" font-weight="bold" font-family="'Helvetica Neue', Helvetica, Arial-Unicode, Arial, Sans-serif">from the Noun Project</text></svg>