<svg xmlns="http://www.w3.org/2000/svg" xmlns:xlink="http://www.w3.org/1999/xlink" version="1.1" x="0px" y="0px" viewBox="0 0 100 125" style="enable-background:new 0 0 100 100;" xml:space="preserve"><g><g><g><g><path d="M32.7,75.5c-0.5,0-0.9-0.4-0.9-0.9V38.5c0-1.7-1.4-3.1-3.1-3.1h-8.4c-0.5,0-0.9-0.4-0.9-0.9      c0-0.5,0.4-0.9,0.9-0.9h8.4c2.7,0,4.9,2.2,4.9,4.9v36.1C33.6,75.1,33.2,75.5,32.7,75.5z"/></g><g><path d="M7.8,75.5c-0.5,0-0.9-0.4-0.9-0.9V38.5c0-2.7,2.2-4.9,4.9-4.9h1.6v-8.4c0-2.4,1.9-4.3,4.3-4.3h5      c2.4,0,4.3,1.9,4.3,4.3v9.3c0,0.5-0.4,0.9-0.9,0.9c-0.5,0-0.9-0.4-0.9-0.9v-9.3c0-1.4-1.1-2.5-2.5-2.5h-5      c-1.4,0-2.5,1.1-2.5,2.5v9.3c0,0.5-0.4,0.9-0.9,0.9h-2.5c-1.7,0-3.1,1.4-3.1,3.1v36.1C8.7,75.1,8.3,75.5,7.8,75.5z"/></g><g><path d="M20.2,22.7c-0.5,0-0.9-0.4-0.9-0.9V6.5c0-0.5,0.4-0.9,0.9-0.9s0.9,0.4,0.9,0.9v15.3      C21.1,22.3,20.7,22.7,20.2,22.7z"/></g><g><path d="M39.6,80.6H0.9c-0.5,0-0.9-0.4-0.9-0.9c0-0.5,0.4-0.9,0.9-0.9h38.7c0.5,0,0.9,0.4,0.9,0.9      C40.5,80.2,40.1,80.6,39.6,80.6z"/></g><g><path d="M32.7,49.8h-7.8c-0.5,0-0.9-0.4-0.9-0.9s0.4-0.9,0.9-0.9h7.8c0.5,0,0.9,0.4,0.9,0.9      S33.2,49.8,32.7,49.8z"/></g><g><path d="M32.7,58h-7.8c-0.5,0-0.9-0.4-0.9-0.9s0.4-0.9,0.9-0.9h7.8c0.5,0,0.9,0.4,0.9,0.9S33.2,58,32.7,58z"/></g><g><path d="M32.7,66.2h-7.8c-0.5,0-0.9-0.4-0.9-0.9c0-0.5,0.4-0.9,0.9-0.9h7.8c0.5,0,0.9,0.4,0.9,0.9      C33.6,65.8,33.2,66.2,32.7,66.2z"/></g><g><g><g><path d="M14.9,94.4c-0.5,0-0.9-0.4-0.9-0.9V79.7c0-0.5,0.4-0.9,0.9-0.9s0.9,0.4,0.9,0.9v13.7        C15.8,94,15.4,94.4,14.9,94.4z"/></g></g><g><path d="M25.5,94.4c-0.5,0-0.9-0.4-0.9-0.9V79.7c0-0.5,0.4-0.9,0.9-0.9s0.9,0.4,0.9,0.9v13.7       C26.4,94,26,94.4,25.5,94.4z"/></g></g><g><path d="M30.4,94.4H10.1c-0.5,0-0.9-0.4-0.9-0.9c0-0.5,0.4-0.9,0.9-0.9h20.2c0.5,0,0.9,0.4,0.9,0.9      C31.3,94,30.9,94.4,30.4,94.4z"/></g></g></g><g><g><path d="M45.9,47C45.9,47,45.9,47,45.9,47c-0.7-0.1-1.3,0.4-1.4,1c0,0.3,0,0.6,0.2,0.9c0.2,0.3,0.5,0.4,0.8,0.5     c0.1,0,0.1,0,0.2,0c0.3,0,0.5-0.1,0.7-0.2c0.3-0.2,0.4-0.5,0.5-0.8C47,47.7,46.6,47.1,45.9,47z"/><path d="M67.2,47.8c-0.2-0.3-0.5-0.4-0.8-0.5c0,0,0,0,0,0c-0.7-0.1-1.3,0.4-1.4,1c-0.1,0.7,0.4,1.3,1,1.4     c0.1,0,0.1,0,0.2,0c0.3,0,0.5-0.1,0.7-0.2c0.3-0.2,0.4-0.5,0.5-0.8C67.4,48.4,67.4,48.1,67.2,47.8z"/></g><path d="M55.2,40C55.2,40,55.2,40,55.2,40c-0.7-0.1-1.3,0.4-1.4,1c0,0.3,0,0.6,0.2,0.9c0.2,0.3,0.5,0.4,0.8,0.5    c0.1,0,0.1,0,0.2,0c0.3,0,0.5-0.1,0.7-0.2c0.3-0.2,0.4-0.5,0.5-0.8C56.4,40.7,55.9,40.1,55.2,40z"/><g><path d="M71.8,32.9c-0.3,0-0.6,0-0.9,0.2c-0.3,0.2-0.4,0.5-0.5,0.8c-0.1,0.7,0.4,1.3,1,1.4c0.1,0,0.1,0,0.2,0     c0.6,0,1.1-0.4,1.2-1C72.9,33.6,72.5,33,71.8,32.9z"/><path d="M87.7,33.2c-0.3,0-0.6,0-0.9,0.2c-0.3,0.2-0.4,0.5-0.5,0.8c0,0.3,0,0.6,0.2,0.9c0.2,0.3,0.5,0.4,0.8,0.5     c0.1,0,0.1,0,0.2,0c0.6,0,1.1-0.4,1.2-1C88.9,33.9,88.4,33.3,87.7,33.2z"/></g><path d="M64.6,22.2C64.6,22.2,64.6,22.2,64.6,22.2c-0.7-0.1-1.3,0.4-1.4,1c0,0.3,0,0.6,0.2,0.9    c0.2,0.3,0.5,0.4,0.8,0.5c0.1,0,0.1,0,0.2,0c0.6,0,1.1-0.4,1.2-1C65.7,22.9,65.2,22.3,64.6,22.2z"/><path d="M47,17.6c-0.2-0.3-0.5-0.4-0.8-0.5c0,0,0,0,0,0c-0.7-0.1-1.3,0.4-1.4,1c0,0.3,0,0.6,0.2,0.9    c0.2,0.3,0.5,0.4,0.8,0.5c0.1,0,0.1,0,0.2,0c0.6,0,1.1-0.4,1.2-1C47.3,18.2,47.2,17.9,47,17.6z"/><g><g><path d="M54.3,32.9c-1.3,0-2.6-0.5-3.6-1.5c-1-1-1.6-2.3-1.6-3.7c0-1.4,0.5-2.7,1.5-3.7l0,0      c2-2.1,5.3-2.1,7.4-0.1c2.1,2,2.1,5.3,0.1,7.4C57.1,32.4,55.7,32.9,54.3,32.9z M54.3,24.3c-0.9,0-1.8,0.3-2.5,1l0,0      c-0.6,0.7-1,1.5-1,2.4c0,0.9,0.4,1.8,1,2.4c1.4,1.3,3.5,1.3,4.8-0.1c1.3-1.4,1.3-3.5-0.1-4.8C56.1,24.6,55.2,24.3,54.3,24.3z"/></g></g><g><g><path d="M69.4,69.8c-1.5,0-3-0.6-4.1-1.7c-1.1-1.1-1.8-2.6-1.8-4.1c0-1.6,0.6-3.1,1.7-4.2l0,0      c2.3-2.3,6-2.4,8.3-0.1c1.1,1.1,1.8,2.6,1.8,4.1c0,1.6-0.6,3.1-1.7,4.2c-1.1,1.1-2.6,1.8-4.1,1.8C69.4,69.8,69.4,69.8,69.4,69.8      z M69.4,59.8c-1.1,0-2.1,0.4-2.9,1.2l0,0c-0.8,0.8-1.2,1.8-1.1,2.9c0,1.1,0.5,2.1,1.2,2.9c0.8,0.8,1.8,1.2,2.9,1.1      c1.1,0,2.1-0.5,2.9-1.2c1.6-1.6,1.5-4.2-0.1-5.8C71.4,60.2,70.4,59.8,69.4,59.8z"/></g></g><g><path d="M70.7,75c-1.2,0-2.4-0.1-3.6-0.4c-3.9-0.8-6.6-2.6-7.8-5.2c-1.1-2.4-0.8-4.9-0.5-7.4     c0-0.5,0.1-0.9,0.1-1.4c0.3-3.5-0.5-5.9-2.2-7c-1.6-1-4.1-0.6-6.3,0.9c-1.2,0.8-2.2,1.9-3.3,3c-0.8,0.8-1.6,1.6-2.5,2.4     c-3.3,2.7-5.9,2.8-7.6,2.4c-0.5-0.1-0.8-0.6-0.7-1.1c0.1-0.5,0.6-0.8,1.1-0.7c1.8,0.4,3.9-0.3,6-2c0.8-0.7,1.6-1.4,2.4-2.3     c1.1-1.1,2.3-2.3,3.6-3.2c2.8-1.9,5.9-2.3,8.2-0.9c1.4,0.8,3.6,3,3.1,8.7c0,0.5-0.1,0.9-0.1,1.4c-0.3,2.3-0.5,4.5,0.4,6.5     c0.9,2,3.3,3.6,6.5,4.2c3.9,0.8,8.2,0.1,10-1.6c2.5-2.3,2.2-6.5,1.2-9.4c-0.6-1.6-1.4-3.1-2.1-4.6c-0.9-1.7-1.8-3.5-2.4-5.5     c-1.2-3.9-0.8-7.6,1.2-10c1.3-1.6,4-3.3,9.1-2.7c0.7,0.1,1.4,0.2,2.1,0.3c3.3,0.6,7.1,1.2,10.1-1.3c1.8-1.6,1.5-3.5,1.2-4.5     c-0.8-2.5-3.6-5.2-7.4-5.5c-1.3-0.1-2.7-0.2-4.2-0.3C79.3,27.4,72,27,70.6,22.5c-0.6-2.1-0.1-4.2,0.4-6.3c0.1-0.5,0.2-1,0.4-1.4     c0.2-0.8,1-5-1.9-6c-0.8-0.3-1.8-0.2-2.7,0.3C65,10,64,11.5,62.8,13.1c-1.1,1.5-2.2,3.1-3.9,4.2c-0.8,0.5-1.8,0.9-2.7,1     c-3.3,0.4-5.5-2.2-7.4-4.4c-1.8-2.1-3.4-4-5.8-3.8c-1.8,0.2-3.3,1.6-3.7,3.4c-0.9,3.9,1.2,7,3.5,10.3c2,2.9,4,6,3.9,9.6     c-0.1,4.8-3.5,8.1-6.8,11.3c-0.8,0.8-1.7,1.6-2.5,2.5c-0.3,0.4-0.9,0.4-1.3,0c-0.4-0.3-0.4-0.9,0-1.3c0.8-0.9,1.7-1.7,2.6-2.6     c3.2-3,6.2-5.9,6.3-10c0.1-3.1-1.7-5.8-3.6-8.6c-2.3-3.5-4.7-7.1-3.7-11.7c0.6-2.6,2.7-4.6,5.3-4.8c3.3-0.3,5.5,2.2,7.4,4.4     c1.8,2.1,3.4,4.1,5.8,3.8c0.6-0.1,1.3-0.3,1.9-0.7c1.4-0.9,2.4-2.3,3.4-3.7c1.2-1.7,2.4-3.5,4.6-4.6c1.3-0.7,2.8-0.8,4.1-0.4     c3.4,1.1,3.8,4.9,3.1,8.1c-0.1,0.5-0.2,1-0.4,1.5c-0.5,1.9-0.9,3.7-0.4,5.3c1,3.3,8,3.7,14.1,4c1.5,0.1,2.9,0.2,4.3,0.3     c4,0.3,7.8,3.2,9,6.7c0.8,2.5,0.1,4.8-1.8,6.4c-3.6,3.1-8,2.4-11.6,1.8c-0.7-0.1-1.4-0.2-2-0.3c-3.5-0.4-6,0.3-7.5,2.1     c-1.9,2.3-1.7,5.8-0.9,8.3c0.6,1.8,1.4,3.4,2.3,5.2c0.8,1.6,1.6,3.2,2.2,4.9c1.3,3.5,1.5,8.4-1.7,11.3C77,74.1,74,75,70.7,75z"/></g></g></g><text x="0" y="115" fill="#000000" font-size="5px" font-weight="bold" font-family="'Helvetica Neue', Helvetica, Arial-Unicode, Arial, Sans-serif">Created by Andrei Yushchenko</text><text x="0" y="120" fill="#000000" font-size="5px" font-weight="bold" font-family="'Helvetica Neue', Helvetica, Arial-Unicode, Arial, Sans-serif">from the Noun Project</text></svg>